#N canvas 0 7 1680 937 12;
#X obj 4 6 cnv 15 1850 900 empty empty empty 20 12 0 14 -128992 -66577
0;
#X obj 9 11 cnv 15 1840 40 empty empty PLACE_NOTHING_HERE 20 12 0 14
-261682 -66577 0;
#X obj 351 418 hsl 250 40 0 255 0 0 empty empty dimmer_l1 -2 -8 0 16
-262144 -1 -1 0 1;
#X obj 350 137 cnv 15 250 250 empty touch pan_tilt_l1 20 12 0 14 -262144
-66577 0;
#X obj 21 137 cnv 15 250 250 empty color color_l1 20 12 0 14 -4034
-66577 0;
#X obj 347 842 hsl 250 40 0 255 0 0 empty empty dimmer_l2 -2 -8 0 16
-262144 -1 -1 0 1;
#X obj 351 565 cnv 15 250 250 empty touch pan_tilt_l2 20 12 0 14 -262144
-66577 0;
#X obj 21 565 cnv 15 250 250 empty color color_l2 20 12 0 14 -4034
-66577 0;
#X obj 19 418 hsl 250 40 0 255 0 0 empty empty white_l1 -2 -8 0 16
-262144 -1 -1 0 1;
#X obj 22 842 hsl 250 40 0 255 0 0 empty empty white_l2 -2 -8 0 16
-262144 -1 -1 0 1;
#X text 193 87 --------- Avant gauche ---------;
#X text 176 515 --------- Avant droite ---------;
#X obj 973 418 hsl 250 40 0 255 0 0 empty empty dimmer_l3 -2 -8 0 16
-262144 -1 -1 0 1;
#X obj 971 137 cnv 15 250 250 empty touch pan_tilt_l3 20 12 0 14 -262144
-66577 0;
#X obj 644 136 cnv 15 250 250 empty color color_l3 20 12 0 14 -4034
-66577 0;
#X obj 964 842 hsl 250 40 0 255 0 0 empty empty dimmer_l4 -2 -8 0 16
-262144 -1 -1 0 1;
#X obj 968 565 cnv 15 250 250 empty touch pan_tilt_l4 20 12 0 14 -262144
-66577 0;
#X obj 638 565 cnv 15 250 250 empty color color_l4 20 12 0 14 -4034
-66577 0;
#X obj 642 418 hsl 250 40 0 255 0 0 empty empty white_l3 -2 -8 0 16
-262144 -1 -1 0 1;
#X obj 639 842 hsl 250 40 0 255 0 0 empty empty white_l4 -2 -8 0 16
-262144 -1 -1 0 1;
#X obj 1593 418 hsl 250 40 0 255 0 0 empty empty dimmer_l5 -2 -8 0
16 -262144 -1 -1 0 1;
#X obj 1592 137 cnv 15 250 250 empty touch pan_tilt_l5 20 12 0 14 -262144
-66577 0;
#X obj 1267 137 cnv 15 250 250 empty color color_l5 20 12 0 14 -4034
-66577 0;
#X obj 1585 842 hsl 250 40 0 255 0 0 empty empty dimmer_l6 -2 -8 0
16 -262144 -1 -1 0 1;
#X obj 1589 565 cnv 15 250 250 empty touch pan_tilt_l6 20 12 0 14 -262144
-66577 0;
#X obj 1261 565 cnv 15 250 250 empty color color_l6 20 12 0 14 -4034
-66577 0;
#X obj 1265 418 hsl 250 40 0 255 0 0 empty empty white_l5 -2 -8 0 16
-262144 -1 -1 0 1;
#X obj 1262 842 hsl 250 40 0 255 0 0 empty empty white_l6 -2 -8 0 16
-262144 -1 -1 0 1;
#X text 1432 515 --------- Avant droite ---------;
#X text 823 87 --------- Milieu gauche ---------;
#X text 806 515 --------- Milieu droite ---------;
#X text 1449 87 --------- Arrière gauche ---------;
#X obj 286 137 vsl 50 250 0 255 0 0 empty empty zoom_l1 0 -9 0 10 -262144
-1 -1 0 1;
#X obj 286 567 vsl 50 250 0 255 0 0 empty empty zoom_l2 0 -9 0 10 -262144
-1 -1 0 1;
#X obj 906 137 vsl 50 250 0 255 0 0 empty empty zoom_l1 0 -9 0 10 -262144
-1 -1 0 1;
#X obj 903 567 vsl 50 250 0 255 0 0 empty empty zoom_l2 0 -9 0 10 -262144
-1 -1 0 1;
#X obj 1529 137 vsl 50 250 0 255 0 0 empty empty zoom_l1 0 -9 0 10
-262144 -1 -1 0 1;
#X obj 1526 567 vsl 50 250 0 255 0 0 empty empty zoom_l2 0 -9 0 10
-262144 -1 -1 0 1;
