#N canvas 653 0 935 943 12;
#X obj 4 6 cnv 16 900 1200 empty empty empty 20 12 0 14 -128992 -66577
0;
#X obj 9 11 cnv 15 1190 40 empty empty PLACE_NOTHING_HERE 20 12 0 14
-261682 -66577 0;
#X obj 105 203 bng 200 250 250 0 empty empty blackout 0 -10 0 10 -262144
-1 -1;
#X text 106 122 --------- Blackout ---------;
#X obj 578 203 bng 200 50 50 0 empty empty greenscreen 0 -10 0 10 -262144
-1 -1;
#X text 569 122 --------- Green screen ---------;
#X obj 101 549 bng 200 50 50 0 empty empty warm 0 -10 0 10 -262144
-1 -1;
#X obj 100 757 bng 200 50 50 0 empty empty cold 0 -10 0 10 -262144
-1 -1;
#X text 98 486 --------- Back lights ---------;
